<?xml version="1.0" standalone="no"?>
<!DOCTYPE svg PUBLIC "-//W3C//DTD SVG 1.1//EN" "http://www.w3.org/Graphics/SVG/1.1/DTD/svg11.dtd" >
<svg xmlns="http://www.w3.org/2000/svg" xmlns:xlink="http://www.w3.org/1999/xlink" version="1.1">
<metadata></metadata>
<defs>
<font id="neuzeitgroteskboldregular" horiz-adv-x="1024" >
<font-face units-per-em="2048" ascent="1536" descent="-512" />
<missing-glyph horiz-adv-x="614" />
<glyph horiz-adv-x="0" />
<glyph horiz-adv-x="682" />
<glyph unicode=" "  horiz-adv-x="614" />
<glyph unicode="&#x09;" horiz-adv-x="614" />
<glyph unicode="&#xa0;" horiz-adv-x="614" />
<glyph unicode="!" horiz-adv-x="587" d="M143 125q0 72 52 117q39 34 100 34q68 0 111 -47q39 -43 38 -106q0 -70 -51 -115q-41 -35 -98 -35q-70 0 -113 47q-39 43 -39 105zM166 426v940h256v-940h-256z" />
<glyph unicode="&#x22;" horiz-adv-x="843" d="M66 1366h307l-54 -549h-202zM473 1366h305l-51 -549h-203z" />
<glyph unicode="#" d="M61 465v137h220l26 182h-194v140h215l55 381h137l-53 -381h178l55 381h142l-58 -381h179v-140h-197l-27 -182h176v-137h-196l-60 -410h-141l60 410h-181l-57 -410h-139l57 410h-197zM418 600h180l29 186h-183z" />
<glyph unicode="$" d="M78 383h233q2 -133 144 -168v358q-129 45 -209 95q-168 106 -168 305q0 135 80 237q102 133 297 148v145h96v-145q203 -35 289 -135q76 -88 84 -224h-232q-6 61 -37 93q-38 37 -104 47v-346q143 -51 227 -101q74 -43 119 -119q47 -78 47 -180q0 -154 -104 -266 q-80 -86 -213 -115q-27 -6 -76 -12v-180h-96v180q-168 12 -279 125q-90 92 -98 258zM311 987q0 -76 58 -119q25 -18 86 -43v314q-57 -6 -86 -31q-57 -45 -58 -121zM551 215q59 8 94 39q55 47 55 125q0 74 -59 117q-31 23 -90 41v-322z" />
<glyph unicode="%" horiz-adv-x="1390" d="M82 934v174q0 145 57 205q68 72 193 71q111 0 182 -61q47 -41 61 -92q13 -45 13 -111v-219q0 -123 -66 -188q-66 -66 -186 -66q-127 0 -195 68q-39 39 -49 94q-10 51 -10 125zM205 29l899 1360l82 -52l-901 -1362zM244 924q0 -74 12 -97q20 -37 80 -36q57 0 78 40 q14 25 14 97v184q0 72 -20 98q-23 29 -70 29q-59 0 -80 -35q-14 -24 -14 -96v-184zM805 264v176q0 145 55 205q70 72 193 72q113 0 182 -62q47 -43 61 -94q13 -42 13 -108v-220q0 -123 -66 -188q-66 -66 -184 -65q-127 0 -197 65q-39 41 -49 94q-8 53 -8 125zM965 256 q0 -74 14 -96q20 -37 78 -37q57 0 80 41q14 25 14 94v186q0 72 -23 99q-20 29 -69 28q-57 0 -78 -32q-16 -27 -16 -99v-184z" />
<glyph unicode="&#x26;" horiz-adv-x="1306" d="M76 358q0 133 67 224q68 90 230 194q-55 78 -76 121q-39 78 -39 156q0 137 109 219q96 72 235 71q158 0 250 -90q84 -82 84 -196q0 -113 -82 -211q-43 -55 -143 -121l188 -252q109 96 201 203l172 -156q-113 -125 -228 -231l228 -289h-299l-107 131q-207 -168 -389 -168 q-170 0 -284 109q-117 113 -117 286zM332 377q0 -66 45 -119q51 -57 129 -57q106 0 211 116l-215 275q-74 -47 -109 -82q-61 -61 -61 -133zM506 1051q0 -37 18 -78q10 -18 27 -39q25 -37 27 -35q51 31 73 55q47 45 47 97q0 45 -30 73q-25 23 -62 23q-49 0 -80 -37 q-20 -27 -20 -59z" />
<glyph unicode="'" horiz-adv-x="446" d="M66 1366h315l-51 -549h-213z" />
<glyph unicode="(" horiz-adv-x="669" d="M76 473q0 315 139 633q70 156 152 258q18 23 59 66l166 -156q-283 -373 -283 -811q0 -418 283 -780l-178 -152q-338 449 -338 942z" />
<glyph unicode=")" horiz-adv-x="669" d="M80 -313q281 371 280 811q1 420 -280 782l176 150q340 -446 340 -943q0 -317 -141 -632q-72 -156 -152 -256q-18 -25 -59 -68z" />
<glyph unicode="*" horiz-adv-x="847" d="M113 1085l51 138l184 -54v197h146v-197l190 68l51 -135l-205 -76l136 -164l-113 -88l-131 164l-117 -164l-125 88l119 164z" />
<glyph unicode="+" d="M27 659v136h413v405h142v-405h417v-136h-417v-405h-142v405h-413z" />
<glyph unicode="," horiz-adv-x="534" d="M66 -229l118 508l242 -60l-182 -489z" />
<glyph unicode="-" horiz-adv-x="454" d="M0 383v231h455v-231h-455z" />
<glyph unicode="." horiz-adv-x="534" d="M117 125q0 72 51 117q39 34 100 34q68 0 111 -47q39 -43 39 -106q0 -70 -51 -115q-41 -35 -101 -35q-68 0 -110 47q-39 43 -39 105z" />
<glyph unicode="/" horiz-adv-x="804" d="M-109 -426l680 1792h181l-678 -1792h-183z" />
<glyph unicode="0" d="M86 475v436q0 178 39 267q47 109 166 163q96 45 217 45q190 0 309 -106q78 -70 103 -158q20 -74 20 -178v-530q0 -158 -47 -248q-106 -193 -377 -193q-215 0 -330 115q-66 66 -82 154q-18 98 -18 233zM348 444q0 -94 8 -122q16 -53 66 -82q43 -25 92 -25q96 0 137 70 q31 47 31 164v475q0 88 -16 125q-39 92 -152 92q-96 0 -137 -68q-29 -47 -29 -162v-467z" />
<glyph unicode="1" d="M233 885v241l510 269v-1395h-264v1016z" />
<glyph unicode="2" d="M57 0l478 727q76 117 96 160q29 59 28 108q0 68 -45 111t-116 43q-117 0 -156 -96q-16 -45 -18 -131h-240q-2 143 47 243q111 221 381 221q113 0 211 -47q113 -53 166 -159q35 -70 35 -156q0 -106 -41 -197q-45 -102 -127 -223l-256 -373h387v-231h-830z" />
<glyph unicode="3" d="M51 371l236 8q10 -63 43 -103q55 -66 143 -65q96 0 160 70q51 55 51 139q0 88 -53 145q-59 63 -158 64q-70 0 -125 -35l-147 125l311 416h-393v225h831l-379 -510q137 -12 228 -88q139 -121 139 -326q0 -211 -145 -348q-125 -115 -310 -115q-166 0 -282 93 q-102 82 -135 217q-8 31 -15 88z" />
<glyph unicode="4" d="M72 281v217l479 872h274v-864h125v-225h-125v-281h-252v281h-501zM287 506h286v508z" />
<glyph unicode="5" d="M72 285l227 86q57 -150 190 -150q88 0 146 64q55 61 55 147q0 84 -53 146q-59 66 -150 65q-102 0 -174 -92h-172v809h699v-238h-459v-293q88 37 170 37q166 0 280 -118q117 -121 117 -312q0 -145 -71 -264q-61 -96 -164 -149q-98 -49 -215 -50q-188 0 -314 123 q-66 66 -112 189z" />
<glyph unicode="6" d="M68 412q0 100 38 204q31 80 111 205l340 539h297l-348 -541q43 12 72 12q154 0 262 -110q117 -119 116 -295q0 -121 -61 -227q-61 -104 -162 -164q-106 -61 -231 -62q-207 0 -334 152q-100 121 -100 287zM315 416q0 -88 62 -148q51 -49 133 -49q98 0 156 74q43 55 43 123 q0 84 -56 139q-55 59 -139 59q-90 0 -152 -67q-47 -55 -47 -131z" />
<glyph unicode="7" d="M141 0l445 1122h-441v238h807l-536 -1360h-275z" />
<glyph unicode="8" d="M70 381q0 246 202 334q-70 35 -108 94q-53 82 -53 188q0 184 131 293q113 96 278 96q186 0 299 -118q102 -109 103 -262q0 -111 -58 -199q-38 -57 -106 -92q197 -86 196 -320q0 -197 -135 -313q-125 -109 -311 -109q-125 0 -234 56q-109 55 -163 161q-41 82 -41 191z M322 399q0 -84 59 -139q53 -49 131 -49q88 0 143 63q47 53 47 125q0 82 -59 140q-55 51 -129 51q-88 0 -143 -64q-49 -53 -49 -127zM348 995q0 -74 53 -125q49 -45 115 -45q80 0 133 62q41 49 41 106q0 70 -57 123q-45 43 -115 43q-84 0 -133 -57q-37 -47 -37 -107z" />
<glyph unicode="9" d="M68 938q0 193 133 322q131 127 319 126q209 0 338 -155q100 -119 100 -287q0 -100 -40 -207q-33 -86 -107 -202l-336 -535h-297l346 537q-37 -8 -61 -9q-141 0 -250 88q-145 119 -145 322zM319 948q0 -90 64 -147q53 -49 129 -49q96 0 156 71q41 53 41 121q0 86 -60 143 q-55 56 -131 56q-90 0 -147 -66q-51 -55 -52 -129z" />
<glyph unicode=":" horiz-adv-x="534" d="M117 125q0 72 51 117q39 34 100 34q68 0 111 -47q39 -43 39 -106q0 -70 -51 -115q-41 -35 -101 -35q-68 0 -110 47q-39 43 -39 105zM117 799q0 72 51 116q39 33 100 33q68 0 111 -45q39 -43 39 -108q0 -70 -51 -113q-41 -35 -101 -35q-68 0 -110 45q-39 43 -39 107z" />
<glyph unicode=";" horiz-adv-x="534" d="M66 -229l118 508l242 -60l-182 -489zM141 768q0 72 54 117q39 33 100 33q66 0 108 -46q41 -43 41 -108q0 -70 -53 -115q-39 -33 -98 -33q-70 0 -111 46q-41 43 -41 106z" />
<glyph unicode="&#x3c;" d="M68 571v238l886 459v-283l-587 -297l587 -297v-278z" />
<glyph unicode="=" d="M25 510v131h972v-131h-972zM25 813v131h972v-131h-972z" />
<glyph unicode="&#x3e;" d="M70 113v280l587 297l-585 297l-2 281l886 -459v-238z" />
<glyph unicode="?" horiz-adv-x="915" d="M51 997q2 115 41 195q98 197 350 197q121 0 226 -60q96 -53 141 -153q31 -70 31 -154q0 -127 -70 -215q-41 -53 -115 -107q-66 -49 -82 -67q-33 -43 -32 -117v-22v-50h-262v74q0 115 28 172q23 43 62 82q25 25 96 80q63 49 84 82q25 39 24 84q0 57 -36 94q-37 41 -101 41 q-80 0 -119 -61q-23 -35 -22 -95h-244zM260 125q0 72 53 117q40 34 101 34q66 0 108 -47q41 -43 41 -106q0 -70 -51 -115q-41 -35 -100 -35q-70 0 -111 47q-41 43 -41 105z" />
<glyph unicode="@" horiz-adv-x="1579" d="M127 678q0 195 106 362q143 225 379 301q111 33 226 33q162 0 299 -71q205 -109 282 -308q37 -92 37 -188q0 -131 -61 -252q-86 -166 -258 -244q-86 -39 -160 -39q-129 0 -139 109q-53 -43 -86 -64q-74 -43 -148 -43q-96 0 -160 68q-61 70 -61 184q0 193 121 369 q61 92 151 147q80 49 176 50q76 0 130 -39q18 -14 51 -49l18 53h178l-213 -568q-25 -70 -24 -98q0 -39 51 -39q53 0 119 43q109 70 168 199q45 98 45 203q0 199 -158 340q-156 139 -367 139q-244 0 -419 -174q-180 -176 -181 -430q0 -254 189 -428q170 -158 393 -158 q227 0 395 141q59 52 133 154h101q-55 -113 -111 -174q-143 -164 -385 -207q-70 -12 -139 -12q-229 0 -412 145q-115 92 -182 215q-84 154 -84 330zM547 453q0 -94 84 -95q39 0 71 25q97 72 148 203l102 262q8 23 9 51q0 106 -87 107q-59 0 -118 -66q-84 -88 -146 -235 q-63 -150 -63 -252z" />
<glyph unicode="A" horiz-adv-x="1294" d="M2 0l473 1366h350l465 -1366h-307l-76 236h-526l-82 -236h-297zM453 467h381l-191 563z" />
<glyph unicode="B" horiz-adv-x="1171" d="M143 0v1366h441q244 0 348 -80q131 -98 131 -287q0 -143 -86 -233q-49 -51 -143 -84q104 -23 159 -72q100 -90 101 -245q0 -137 -72 -232q-66 -86 -178 -115q-74 -18 -199 -18h-502zM424 207h135q94 0 135 12q117 37 117 168q0 113 -80 158q-53 33 -186 33h-121v-371z M424 786h111q133 0 190 48q55 49 55 137q0 76 -41 123q-51 57 -219 57h-96v-365z" />
<glyph unicode="C" horiz-adv-x="1300" d="M76 680q0 203 94 375q92 174 262 262q141 74 322 74q184 0 331 -76q84 -41 185 -139l-183 -187q-156 143 -319 144q-188 0 -303 -136q-104 -123 -105 -311q0 -139 66 -254q49 -90 147 -145q94 -55 209 -56q182 1 305 142l170 -193q-102 -96 -192 -139q-143 -68 -315 -68 q-305 0 -490 205q-100 111 -149 266q-35 115 -35 236z" />
<glyph unicode="D" horiz-adv-x="1312" d="M143 0v1366h387q231 0 369 -72q172 -86 262 -262q76 -145 76 -334q0 -236 -113 -413q-176 -285 -577 -285h-404zM424 231h53q152 0 238 41q119 57 182 181q55 102 55 235q0 150 -65 262q-61 104 -176 152q-84 37 -185 37h-102v-908z" />
<glyph unicode="E" horiz-adv-x="948" d="M96 0v1366h758v-229h-477v-336h477v-230h-477v-342h477v-229h-758z" />
<glyph unicode="F" horiz-adv-x="956" d="M143 0v1366h760v-229h-479v-336h479v-230h-479v-571h-281z" />
<glyph unicode="G" horiz-adv-x="1540" d="M76 682q0 303 203 510q197 199 495 199q211 0 389 -113q92 -57 166 -150l-213 -165q-53 68 -102 100q-102 70 -234 70q-139 0 -245 -80q-90 -70 -140 -187q-35 -90 -35 -186q0 -211 148 -344q121 -109 280 -109q123 0 230 72q92 61 133 164q12 25 25 74h-379v229h682 q2 -39 2 -74q0 -305 -201 -506q-209 -213 -502 -213q-186 0 -346 88q-164 88 -258 244q-98 166 -98 377z" />
<glyph unicode="H" horiz-adv-x="1366" d="M143 0v1366h281v-578h518v578h281v-1366h-281v559h-518v-559h-281z" />
<glyph unicode="I" horiz-adv-x="565" d="M143 0v1366h281v-1366h-281z" />
<glyph unicode="J" horiz-adv-x="786" d="M63 -20v247q35 -4 60 -4q123 0 186 53q49 39 66 109q10 51 10 168v584h-322v229h603v-883q0 -223 -78 -329q-102 -135 -314 -164q-74 -10 -211 -10z" />
<glyph unicode="K" horiz-adv-x="1153" d="M143 0v1366h281v-594l387 594h324l-443 -659l443 -707h-328l-383 608v-608h-281z" />
<glyph unicode="L" horiz-adv-x="923" d="M143 0v1366h281v-1135h457v-231h-738z" />
<glyph unicode="M" horiz-adv-x="1736" d="M143 0v1366h318l407 -829l410 829h317v-1366h-280v850l-447 -893l-444 893v-850h-281z" />
<glyph unicode="N" horiz-adv-x="1413" d="M143 0v1366h275l573 -854v854h281v-1366h-275l-573 862v-862h-281z" />
<glyph unicode="O" horiz-adv-x="1564" d="M76 676q0 313 223 526q199 191 494 191q178 0 327 -80q188 -102 287 -283q80 -152 80 -354q0 -186 -92 -350q-98 -176 -279 -271q-152 -82 -328 -82q-195 0 -362 97q-180 104 -272 280q-78 150 -78 326zM362 682q0 -195 123 -322t297 -127q184 0 312 140q59 68 88 162 q20 74 20 139q0 217 -135 346q-119 113 -283 113q-195 0 -319 -150q-102 -125 -103 -301z" />
<glyph unicode="P" horiz-adv-x="1128" d="M143 0v1366h437q244 0 374 -117q129 -115 129 -321q0 -164 -82 -281q-127 -178 -403 -178h-174v-469h-281zM424 700h119q82 0 135 23q123 53 123 192q0 129 -109 189q-57 29 -141 29h-127v-433z" />
<glyph unicode="Q" horiz-adv-x="1566" d="M78 674q0 201 98 368q98 170 266 263q158 86 349 86q326 0 528 -234q170 -195 170 -465q0 -266 -158 -463l129 -139l-198 -168l-123 148q-164 -96 -359 -97q-188 0 -358 101q-178 104 -268 278q-76 147 -76 322zM362 682q0 -195 123 -324q121 -125 289 -125q100 0 168 46 l-92 108l197 168l100 -113q57 113 57 248q0 199 -135 328q-120 112 -282 112h-3q-119 0 -219 -61q-102 -63 -155 -174q-47 -92 -48 -213z" />
<glyph unicode="R" horiz-adv-x="1196" d="M143 0v1366h420q256 0 387 -109q51 -41 80 -98q55 -100 55 -223q0 -195 -124 -309q-76 -72 -199 -103l375 -524h-340l-373 543v-543h-281zM424 707h127q109 0 174 47q76 57 76 168q0 94 -56 149q-59 61 -172 62h-149v-426z" />
<glyph unicode="S" horiz-adv-x="1067" d="M63 399h275q0 -53 12 -82q23 -45 74 -71q45 -25 100 -25q80 0 135 47q45 41 46 101q0 66 -58 106q-39 31 -166 76q-201 72 -291 151q-114 99 -114 274q0 196 133 308q125 106 319 107q188 0 310 -103q133 -111 149 -313h-282q-14 168 -179 168q-86 0 -129 -47 q-39 -39 -39 -97q0 -82 84 -129q43 -23 160 -65q150 -55 217 -98q176 -115 176 -320q0 -215 -168 -330q-123 -84 -301 -84q-205 0 -325 105q-138 114 -138 315v6z" />
<glyph unicode="T" horiz-adv-x="942" d="M6 1137v229h932v-229h-326v-1137h-280v1137h-326z" />
<glyph unicode="U" horiz-adv-x="1308" d="M121 575v791h280v-801q0 -176 62 -250q68 -82 190 -82q88 0 156 50q66 49 86 139q10 49 10 143v801h283v-791q0 -205 -60 -327q-66 -143 -204 -213q-119 -61 -267 -62q-176 0 -311 84q-143 88 -192 242q-33 102 -33 276z" />
<glyph unicode="V" horiz-adv-x="1150" d="M2 1366h291l274 -915l289 915h291l-432 -1366h-297z" />
<glyph unicode="W" horiz-adv-x="1755" d="M2 1366h297l221 -862l221 862h279l213 -879l225 879h293l-381 -1366h-280l-218 895l-215 -895h-280z" />
<glyph unicode="X" horiz-adv-x="1189" d="M8 0l430 721l-383 645h324l219 -391l225 391h320l-385 -645l424 -721h-320l-264 473l-264 -473h-326z" />
<glyph unicode="Y" horiz-adv-x="1140" d="M-23 1366h334l264 -473l261 473h327l-448 -764v-602h-281v602z" />
<glyph unicode="Z" horiz-adv-x="1128" d="M27 0l637 1137h-566v229h1006l-637 -1137h575v-229h-1015z" />
<glyph unicode="[" horiz-adv-x="669" d="M133 -426v1792h440v-154h-219v-1484h219v-154h-440z" />
<glyph unicode="\" horiz-adv-x="804" d="M51 1366h182l678 -1792h-180z" />
<glyph unicode="]" horiz-adv-x="669" d="M94 -272h219v1484h-219v154h441v-1792h-441v154z" />
<glyph unicode="^" d="M37 725l317 647h316l317 -647h-252l-223 457l-223 -457h-252z" />
<glyph unicode="_" d="M0 -121h1024v-170h-1024v170z" />
<glyph unicode="`" d="M201 1376h262l170 -284h-162z" />
<glyph unicode="a" horiz-adv-x="1243" d="M135 739q59 111 166 174q109 66 244 66q111 0 198 -53q54 -31 111 -99v119h260v-946h-260v129q-129 -162 -330 -162q-217 0 -348 160q-108 134 -108 332q0 154 67 280zM344 467q0 -135 84 -219q70 -72 168 -72q119 0 195 98q67 85 67 196q0 118 -59 196q-74 94 -201 94 q-123 0 -192 -96q-61 -84 -62 -197z" />
<glyph unicode="b" horiz-adv-x="1239" d="M129 0v1366h260v-535q59 68 117 101q84 49 190 49q215 0 355 -156q123 -137 123 -356q0 -244 -148 -381q-129 -121 -315 -121q-113 0 -203 47q-60 31 -119 109v-123h-260zM387 467q0 -133 76 -215q72 -76 176 -76q123 0 195 88q63 80 63 203q0 117 -66 201 q-71 92 -186 92q-121 0 -196 -105q-61 -82 -62 -188z" />
<glyph unicode="c" horiz-adv-x="958" d="M68 469q0 160 79 291q70 113 193 170q104 51 229 51q207 0 379 -158l-172 -159q-86 84 -196 84q-115 0 -189 -86q-61 -76 -61 -185q0 -131 84 -211q71 -67 173 -67h3q92 0 186 80l158 -170q-158 -141 -365 -142q-215 0 -364 148q-137 135 -137 354z" />
<glyph unicode="d" horiz-adv-x="1243" d="M219 850q139 131 322 131q92 0 176 -37q67 -28 137 -102v524h260v-1366h-260v125q-55 -78 -113 -109q-90 -49 -204 -49q-221 0 -353 152q-116 132 -116 342q0 248 151 389zM344 465q0 -133 78 -211q74 -78 178 -78q119 0 193 96q61 82 61 195q0 127 -72 211 q-69 84 -180 84q-133 0 -207 -115q-51 -80 -51 -182z" />
<glyph unicode="e" horiz-adv-x="1138" d="M68 475q0 135 59 252q59 121 176 186q117 68 264 68q252 0 400 -178q112 -138 112 -336v-55h-741q12 -78 55 -127q76 -86 193 -86q82 0 151 47q43 29 68 76l237 -66q-55 -111 -143 -178q-139 -111 -315 -111q-238 0 -389 160q-127 135 -127 348zM338 561h473 q-12 76 -53 121q-72 78 -189 78q-111 0 -180 -78q-37 -45 -51 -121z" />
<glyph unicode="f" horiz-adv-x="585" d="M43 727v219h104v53q0 367 347 367h38v-242q-57 -6 -86 -26q-37 -29 -36 -99v-53h122v-219h-122v-727h-263v727h-104z" />
<glyph unicode="g" horiz-adv-x="1206" d="M39 467q0 145 61 272q59 117 168 181q106 61 246 61q100 0 184 -43q66 -37 123 -109v117h256v-876q0 -199 -55 -301q-63 -119 -199 -183q-117 -55 -266 -55q-274 0 -465 188l162 164q121 -133 293 -133q135 0 207 78q68 74 67 205v96q-129 -162 -334 -162q-121 0 -227 64 q-221 135 -221 436zM315 477q0 -133 84 -213q69 -65 167 -65h3q121 0 197 88q49 55 49 168q0 150 -70 219q-74 74 -176 74q-127 0 -200 -97q-53 -70 -54 -174z" />
<glyph unicode="h" horiz-adv-x="1083" d="M129 0v1366h260v-520q113 135 258 135q84 0 164 -43q92 -49 125 -135q25 -63 25 -178v-625h-263v588q0 92 -51 139q-35 33 -90 33q-66 0 -115 -47q-35 -33 -45 -70q-8 -31 -8 -80v-563h-260z" />
<glyph unicode="i" horiz-adv-x="518" d="M115 1219q0 68 49 110q39 35 96 35q66 0 107 -45q36 -42 36 -99q0 -69 -49 -112q-37 -35 -94 -35q-68 0 -106 45q-39 41 -39 101zM129 0v946h260v-946h-260z" />
<glyph unicode="j" horiz-adv-x="518" d="M-49 -197q20 -2 39 -2q68 0 102 43q37 45 37 123v979h260v-979q0 -209 -90 -303q-96 -102 -279 -102q-20 0 -69 4v237zM115 1219q0 68 49 110q39 35 96 35q66 0 107 -45q36 -42 36 -99q0 -69 -49 -112q-37 -35 -94 -35q-68 0 -106 45q-39 43 -39 101z" />
<glyph unicode="k" horiz-adv-x="970" d="M129 0v1366h260v-782l266 362h301l-323 -452l323 -494h-303l-264 393v-393h-260z" />
<glyph unicode="l" horiz-adv-x="518" d="M129 0v1366h260v-1366h-260z" />
<glyph unicode="m" horiz-adv-x="1622" d="M129 0v946h260v-119q39 70 88 103q74 51 172 51q96 0 170 -49q57 -37 88 -111q45 76 103 111q78 49 184 49q145 0 227 -90q53 -57 66 -127q10 -59 10 -146v-618h-260v569q0 86 -25 127q-35 63 -118 64q-76 0 -117 -58q-33 -49 -33 -133v-569h-262v563q0 197 -143 197 q-72 0 -113 -55q-37 -47 -37 -142v-563h-260z" />
<glyph unicode="n" horiz-adv-x="1087" d="M129 0v946h260v-115q47 72 92 105q70 45 164 45q143 0 234 -88q57 -55 71 -129q14 -68 15 -166v-598h-263v586q0 76 -22 110q-41 63 -125 64q-82 0 -131 -68q-35 -45 -35 -117v-575h-260z" />
<glyph unicode="o" horiz-adv-x="1163" d="M68 471q0 248 165 389q142 121 353 121q238 0 387 -170q125 -141 125 -346q0 -221 -164 -367q-147 -131 -354 -131q-162 0 -289 80q-119 76 -178 201q-45 100 -45 223zM330 473q0 -129 73 -203q73 -71 176 -71h3q121 0 196 92q57 68 58 178q0 135 -74 209q-69 70 -178 70 q-119 0 -193 -84q-61 -72 -61 -191z" />
<glyph unicode="p" horiz-adv-x="1247" d="M129 -426v1372h260v-117q49 66 103 99q88 53 210 53q145 0 263 -80q217 -145 217 -432q0 -276 -191 -414q-119 -88 -284 -88q-199 0 -318 135v-528h-260zM389 463q0 -133 72 -209q72 -78 180 -78q137 0 211 109q51 76 51 180q0 133 -72 215q-71 82 -182 82 q-133 0 -209 -113q-51 -76 -51 -186z" />
<glyph unicode="q" horiz-adv-x="1243" d="M197 831q137 150 352 150q98 0 176 -37q68 -31 129 -106v108h260v-1372h-260v528q-55 -59 -109 -88q-92 -47 -215 -47q-217 0 -350 154q-114 130 -114 342q0 227 131 368zM344 469q0 -133 80 -217q70 -76 174 -76q125 0 201 105q55 78 55 186q0 131 -72 211 q-73 82 -182 82q-137 0 -209 -115q-47 -78 -47 -176z" />
<glyph unicode="r" horiz-adv-x="681" d="M129 0v946h260v-137q35 90 84 125q63 47 152 47q10 0 32 -2v-266q-35 4 -55 4q-115 0 -174 -86q-27 -41 -33 -86q-6 -37 -6 -88v-457h-260z" />
<glyph unicode="s" horiz-adv-x="858" d="M53 279h250q18 -119 125 -119q45 0 74 22q30 28 30 66q0 47 -49 80q-27 16 -127 47q-150 47 -221 117q-76 74 -76 188q0 154 125 235q100 66 242 66q205 0 301 -131q49 -70 53 -176h-245v16q0 33 -21 55q-33 43 -98 43q-49 0 -76 -24q-29 -25 -29 -62q0 -39 27 -61 q31 -23 82 -39l78 -24q158 -47 219 -109q78 -76 78 -195q0 -150 -119 -237q-96 -70 -250 -70q-209 0 -309 127q-57 76 -64 185z" />
<glyph unicode="t" horiz-adv-x="581" d="M33 733v219h108v254h260v-254h119v-219h-119v-454q0 -35 19 -48q18 -14 55 -14h45v-217h-207q-92 0 -135 45q-37 39 -37 135v553h-108z" />
<glyph unicode="u" horiz-adv-x="1054" d="M111 348v598h262v-581q0 -61 28 -111q39 -68 127 -68q82 0 125 62q29 37 29 100v598h260v-598q0 -143 -47 -217q-55 -84 -162 -127q-90 -37 -205 -37q-203 0 -315 103q-102 92 -102 278z" />
<glyph unicode="v" horiz-adv-x="948" d="M-2 946h268l211 -563l209 563h266l-344 -946h-268z" />
<glyph unicode="w" horiz-adv-x="1490" d="M-2 946h264l191 -575l163 575h252l168 -575l195 575h264l-309 -946h-273l-165 580l-168 -580h-279z" />
<glyph unicode="x" horiz-adv-x="980" d="M-2 946h328l174 -250l168 250h315l-336 -477l332 -469h-315l-164 258l-174 -258h-308l330 469z" />
<glyph unicode="y" horiz-adv-x="960" d="M-2 946h276l193 -563l219 563h279l-535 -1378h-280l180 455z" />
<glyph unicode="z" horiz-adv-x="862" d="M31 0l397 727h-360v219h768l-396 -727h367v-219h-776z" />
<glyph unicode="{" d="M211 391v225q57 14 86 52q29 39 29 120v314q0 143 63 211q43 45 115 61q47 12 192 12q57 0 107 -2v-258q-104 0 -148 -20q-37 -20 -45 -62q-6 -29 -6 -83v-220q0 -113 -35 -170q-23 -38 -82 -73q74 -45 99 -115q18 -47 18 -133v-223q0 -88 19 -117q18 -29 47 -39 q47 -14 133 -14v-244q-47 -2 -119 -2q-143 0 -195 14q-106 31 -143 127q-20 61 -20 158v295q0 98 -31 137q-31 37 -84 49z" />
<glyph unicode="|" d="M371 -342v1708h282v-1708h-282z" />
<glyph unicode="}" d="M221 -129q104 0 148 20q35 18 45 62q6 29 6 84v217q0 113 35 172q23 37 82 74q-74 45 -99 112q-18 49 -18 133v224q0 82 -12 108q-23 39 -68 51q-41 12 -96 13h-23v243q49 2 119 2q143 0 195 -16q104 -29 143 -127q20 -59 20 -156v-296q0 -98 31 -138q31 -35 84 -49v-223 q-57 -14 -86 -51q-29 -39 -29 -123v-311q0 -145 -63 -213q-43 -45 -115 -62q-47 -10 -190 -10q-61 0 -109 2v258z" />
<glyph unicode="~" horiz-adv-x="1366" d="M190 1255q111 270 302 271q70 0 231 -72q88 -39 113 -45q27 -8 49 -8q84 0 155 131l140 -117q-39 -92 -72 -135q-94 -131 -250 -131q-37 0 -84 14q-33 12 -141 62q-104 47 -154 47q-79 0 -149 -131z" />
<glyph unicode="&#xa2;" d="M100 655q0 207 109 342q90 113 235 150q33 8 95 16v150h96v-150q92 -10 160 -41q74 -33 157 -110l-168 -152q-33 35 -59 49q-35 21 -90 29v-555q82 8 149 68l154 -158q-70 -63 -137 -92q-70 -31 -166 -41v-201h-96v201q-141 20 -236 86q-203 135 -203 409zM348 666 q0 -227 191 -283v555q-78 -20 -119 -66q-72 -78 -72 -206z" />
<glyph unicode="&#xa3;" d="M63 0q8 143 80 233q72 86 191 95q18 33 28 49q35 55 35 96q0 90 -82 164h-235v125h135q-45 57 -61 96q-27 61 -27 135q0 176 125 285q119 100 289 100q123 0 227 -57q135 -80 168 -199q10 -47 12 -118h-233v14q0 68 -51 115q-47 47 -113 47q-70 0 -119 -52 q-47 -47 -47 -114q0 -80 68 -168q18 -27 71 -84h279v-125h-213q47 -84 47 -137q0 -82 -98 -201q10 -4 61 -25q18 -6 57 -26q104 -53 158 -53q61 0 121 63l25 -172q-88 -104 -209 -104q-57 0 -129 32q-39 18 -127 66q-76 43 -123 43q-59 0 -90 -53q-16 -27 -19 -70h-201z" />
<glyph unicode="&#xa5;" d="M18 1360h279l221 -520l219 520h269l-213 -453h172v-135h-236l-82 -174v-14h277v-135h-277v-449h-264v449h-283v135h283v14l-82 174h-242v135h177z" />
<glyph unicode="&#xa8;" d="M156 1239q0 66 45 104q39 35 94 35q59 0 100 -45q35 -39 35 -96q0 -59 -47 -100q-39 -33 -90 -33q-61 0 -103 45q-35 37 -34 90zM592 1239q0 66 47 104q37 35 92 35q59 0 100 -45q35 -39 35 -96q0 -59 -45 -100q-39 -33 -92 -33q-61 0 -102 45q-35 37 -35 90z" />
<glyph unicode="&#xa9;" horiz-adv-x="1579" d="M84 682q0 201 104 373q102 168 283 260q152 78 330 78q190 0 360 -107q170 -104 260 -280q76 -154 76 -324q0 -199 -102 -371q-104 -170 -281 -260q-152 -78 -321 -78q-199 0 -369 105q-170 102 -262 280q-78 154 -78 324zM215 682q0 -244 170 -416q170 -170 406 -170 q238 0 405 172q170 172 170 414q0 166 -86 307q-82 139 -227 215q-121 66 -254 66q-244 0 -414 -170q-170 -172 -170 -418zM406 686q0 178 106 295q109 121 289 121q166 0 268 -111q74 -78 82 -180h-129q-14 53 -53 86q-66 57 -168 57q-115 0 -176 -90q-49 -72 -50 -178 q0 -109 48 -176q61 -90 178 -90q113 0 178 69q41 45 49 117h133q-10 -127 -84 -213q-102 -121 -282 -121q-190 0 -299 136q-90 111 -90 278z" />
<glyph unicode="&#xab;" horiz-adv-x="866" d="M76 487l194 347h168l-196 -347l196 -333h-168zM414 487l194 347h168l-196 -347l196 -333h-168z" />
<glyph unicode="&#xad;" horiz-adv-x="454" d="M0 383v231h455v-231h-455z" />
<glyph unicode="&#xae;" horiz-adv-x="1579" d="M84 682q0 201 104 373q102 168 283 260q152 78 330 78q190 0 360 -107q170 -104 260 -280q76 -154 76 -324q0 -201 -102 -371q-104 -170 -283 -260q-150 -78 -321 -78q-197 0 -367 105q-170 102 -262 280q-78 154 -78 324zM215 682q0 -244 170 -416q170 -170 406 -170 q238 0 405 172q170 172 170 414q0 166 -86 307q-82 139 -227 215q-121 66 -254 66q-244 0 -414 -170q-170 -172 -170 -418zM492 291v792h333q119 0 185 -36q102 -61 102 -185q0 -135 -133 -192q61 -25 88 -68q20 -35 29 -92q2 -16 6 -96q4 -86 20 -123h-161q-14 27 -23 155 q-6 111 -49 142q-39 31 -117 30h-113v-327h-167zM659 719h125q162 0 162 131q0 129 -147 129h-140v-260z" />
<glyph unicode="&#xb4;" d="M391 1092l170 284h262l-270 -284h-162z" />
<glyph unicode="&#xb8;" d="M326 -332q78 41 125 99q37 45 69 112l178 -76q-51 -78 -108 -127q-60 -51 -160 -102z" />
<glyph unicode="&#xbb;" horiz-adv-x="866" d="M88 158l197 344l-197 336h168l197 -336l-197 -344h-168zM426 158l197 344l-197 336h170l195 -336l-195 -344h-170z" />
<glyph unicode="&#xc2;" horiz-adv-x="1294" d="M2 0l473 1366h350l465 -1366h-307l-76 236h-526l-82 -236h-297zM305 1489l232 272h235l217 -272h-180l-160 137l-162 -137h-182zM453 467h381l-191 563z" />
<glyph unicode="&#xc7;" horiz-adv-x="1300" d="M76 680q0 203 94 375q94 174 262 262q141 74 324 74q182 0 329 -76q84 -41 185 -139l-183 -187q-156 143 -319 144q-188 0 -303 -136q-104 -123 -105 -311q0 -139 66 -254q49 -90 147 -145q94 -55 209 -56q182 1 305 142l170 -193q-102 -96 -192 -139q-143 -68 -315 -68 q-305 0 -490 205q-100 111 -149 266q-35 115 -35 236zM449 -340q104 53 151 115q35 43 49 102l248 -72q-47 -74 -113 -127q-80 -63 -211 -112z" />
<glyph unicode="&#xce;" horiz-adv-x="565" d="M-59 1489l231 272h238l217 -272h-183l-157 137l-164 -137h-182zM143 0v1366h281v-1366h-281z" />
<glyph unicode="&#xd6;" horiz-adv-x="1564" d="M76 676q0 313 223 526q199 191 494 191q178 0 327 -80q188 -102 287 -283q80 -152 80 -354q0 -186 -92 -350q-98 -176 -279 -271q-152 -82 -328 -82q-195 0 -362 97q-180 104 -272 280q-78 150 -78 326zM362 682q0 -195 123 -322t297 -127q184 0 312 140q59 68 88 162 q20 74 20 139q0 217 -135 346q-119 113 -283 113q-195 0 -319 -150q-102 -125 -103 -301zM422 1640q0 63 47 107q39 35 94 35q61 0 103 -45q37 -41 36 -99q0 -61 -49 -104q-37 -35 -92 -35q-61 0 -102 45q-37 41 -37 96zM856 1640q0 63 49 107q37 35 92 35q61 0 103 -45 q39 -41 39 -99q0 -61 -49 -104q-39 -35 -93 -35q-63 0 -102 45q-39 41 -39 96z" />
<glyph unicode="&#xdb;" horiz-adv-x="1308" d="M121 575v791h280v-801q0 -176 62 -250q68 -82 190 -82q88 0 156 50q66 49 86 139q10 49 10 143v801h283v-791q0 -205 -60 -327q-66 -143 -204 -213q-119 -61 -267 -62q-176 0 -311 84q-143 88 -192 242q-33 102 -33 276zM311 1489l232 272h237l217 -272h-182l-158 137 l-163 -137h-183z" />
<glyph unicode="&#xdc;" horiz-adv-x="1308" d="M121 575v791h280v-801q0 -176 62 -250q68 -82 190 -82q88 0 156 50q66 49 86 139q10 49 10 143v801h283v-791q0 -205 -60 -327q-66 -143 -204 -213q-119 -61 -267 -62q-176 0 -311 84q-143 88 -192 242q-33 102 -33 276zM293 1640q0 63 49 107q39 35 92 35q61 0 103 -45 q39 -41 38 -99q0 -61 -49 -104q-39 -35 -92 -35q-63 0 -102 45q-39 41 -39 96zM729 1640q0 63 49 107q37 35 92 35q61 0 103 -45q39 -41 39 -99q0 -63 -49 -104q-39 -35 -93 -35q-63 0 -102 45q-39 41 -39 96z" />
<glyph unicode="&#xe2;" horiz-adv-x="1243" d="M68 463q0 150 67 276q59 111 166 174q109 66 244 66q111 0 198 -53q54 -31 111 -99v119h260v-946h-260v129q-129 -162 -330 -162q-217 0 -348 160q-109 135 -108 336zM299 1092l209 284h242l196 -284h-182l-139 149l-144 -149h-182zM344 467q0 -135 84 -219 q70 -72 168 -72q119 0 195 98q68 86 67 199q0 115 -59 193q-74 94 -201 94q-123 0 -192 -96q-61 -84 -62 -197z" />
<glyph unicode="&#xe7;" horiz-adv-x="958" d="M68 469q0 160 79 291q70 113 193 170q104 51 229 51q207 0 379 -158l-172 -159q-86 84 -196 84q-115 0 -189 -86q-61 -76 -61 -185q0 -129 84 -211q72 -68 176 -67q92 0 186 80l158 -170q-158 -141 -365 -142q-215 0 -364 148q-137 135 -137 354zM322 -332q78 41 124 99 q37 45 70 112l178 -76q-51 -78 -108 -127q-60 -51 -160 -102z" />
<glyph unicode="&#xee;" horiz-adv-x="518" d="M-63 1092l208 284h240l199 -284h-185l-139 149l-141 -149h-182zM129 0v946h260v-946h-260z" />
<glyph unicode="&#xf6;" horiz-adv-x="1163" d="M68 471q0 248 165 389q142 121 353 121q238 0 387 -170q125 -139 125 -346q0 -221 -164 -367q-147 -131 -354 -131q-260 0 -410 189q-102 131 -102 315zM225 1239q0 66 45 104q40 35 95 35q61 0 102 -45q35 -39 35 -96q0 -59 -47 -100q-39 -33 -90 -33q-63 0 -105 45 q-35 37 -35 90zM330 473q0 -129 73 -203q74 -72 179 -71q121 0 196 92q57 68 58 178q0 135 -74 209q-69 70 -178 70q-119 0 -193 -84q-61 -72 -61 -191zM662 1239q0 66 47 104q37 35 92 35q59 0 100 -45q37 -37 37 -96t-47 -100q-39 -33 -92 -33q-61 0 -103 45 q-35 37 -34 90z" />
<glyph unicode="&#xfb;" horiz-adv-x="1054" d="M111 348v598h262v-581q0 -61 28 -111q39 -68 127 -68q82 0 125 62q29 37 29 100v598h260v-598q0 -143 -47 -217q-55 -84 -162 -127q-90 -37 -205 -37q-203 0 -315 103q-102 92 -102 278zM203 1092l209 284h241l197 -284h-182l-140 149l-143 -149h-182z" />
<glyph unicode="&#xfc;" horiz-adv-x="1054" d="M111 348v598h262v-581q0 -61 28 -111q39 -68 127 -68q82 0 125 62q29 37 29 100v598h260v-598q0 -143 -47 -217q-55 -84 -162 -127q-90 -37 -205 -37q-203 0 -315 103q-102 92 -102 278zM170 1239q0 66 45 104q39 35 94 35q59 0 101 -45q35 -39 34 -96q0 -59 -45 -100 q-39 -33 -92 -33q-61 0 -102 45q-35 37 -35 90zM606 1239q0 66 45 104q39 35 94 35q59 0 101 -45q35 -39 35 -96q0 -59 -45 -100q-39 -33 -93 -33q-61 0 -102 45q-35 37 -35 90z" />
<glyph unicode="&#x11e;" horiz-adv-x="1540" d="M76 682q0 303 203 510q197 199 495 199q211 0 389 -113q92 -57 166 -150l-213 -165q-53 68 -102 100q-102 70 -234 70q-139 0 -245 -80q-90 -70 -140 -187q-35 -90 -35 -186q0 -211 148 -344q121 -109 280 -109q123 0 230 72q92 61 133 164q12 25 25 74h-379v229h682 q2 -39 2 -74q0 -305 -201 -506q-209 -213 -502 -213q-186 0 -346 88q-164 88 -258 244q-98 166 -98 377zM418 1749h180q25 -39 45 -57q47 -41 127 -41t125 41q23 18 47 57h180q-25 -84 -69 -135q-104 -119 -283 -119q-176 0 -283 119q-44 51 -69 135z" />
<glyph unicode="&#x11f;" horiz-adv-x="1206" d="M39 467q0 145 61 272q59 117 168 181q106 61 246 61q100 0 184 -43q66 -37 123 -109v117h256v-876q0 -199 -55 -301q-63 -119 -199 -183q-117 -55 -266 -55q-274 0 -465 188l162 164q121 -133 293 -133q135 0 207 78q68 74 67 205v96q-129 -162 -334 -162q-121 0 -227 64 q-221 135 -221 436zM315 477q0 -133 84 -213q70 -66 170 -65q121 0 197 88q49 55 49 168q0 150 -70 219q-74 74 -176 74q-127 0 -200 -97q-53 -70 -54 -174zM385 1362h180q10 -41 10 -74q0 -57 27 -57q31 0 31 57q-2 33 8 74h180q-6 -78 -28 -127q-29 -57 -82 -90 q-47 -29 -109 -29q-86 0 -143 60q-66 61 -74 186z" />
<glyph unicode="&#x130;" horiz-adv-x="565" d="M139 1640q0 63 49 107q40 35 95 35q59 0 100 -45q39 -41 39 -99q0 -61 -49 -104q-37 -35 -92 -35q-63 0 -103 45q-39 41 -39 96zM143 0v1366h281v-1366h-281z" />
<glyph unicode="&#x131;" horiz-adv-x="518" d="M129 0v946h260v-946h-260z" />
<glyph unicode="&#x15e;" horiz-adv-x="1067" d="M63 399h275q0 -53 12 -82q23 -45 74 -71q45 -25 100 -25q80 0 135 47q45 41 46 101q0 66 -58 106q-39 31 -166 76q-201 72 -291 151q-115 100 -114 277q0 193 133 305q125 106 319 107q188 0 310 -103q133 -111 149 -313h-282q-14 168 -179 168q-86 0 -129 -47 q-39 -39 -39 -97q0 -82 84 -129q43 -23 160 -65q150 -55 217 -98q176 -115 176 -320q0 -215 -168 -330q-123 -84 -301 -84q-205 0 -325 105q-140 116 -138 321zM326 -332q78 41 125 99q37 45 69 112l178 -76q-51 -78 -108 -127q-60 -51 -160 -102z" />
<glyph unicode="&#x15f;" horiz-adv-x="858" d="M53 279h250q18 -119 125 -119q45 0 74 22q31 29 30 68q0 45 -49 78q-27 16 -127 47q-150 47 -221 117q-76 74 -76 188q0 154 125 235q100 66 242 66q205 0 301 -131q49 -70 53 -176h-245v16q0 33 -21 55q-33 43 -98 43q-49 0 -76 -24q-29 -25 -29 -62q0 -39 27 -61 q31 -23 82 -39l78 -24q158 -47 219 -109q78 -76 78 -195q0 -150 -119 -237q-96 -70 -250 -70q-209 0 -309 127q-57 76 -64 185zM221 -332q78 41 125 99q37 45 70 112l178 -76q-51 -78 -109 -127q-59 -51 -159 -102z" />
<glyph unicode="&#x2c6;" d="M188 1092l209 284h242l197 -284h-183l-139 149l-143 -149h-183z" />
<glyph unicode="&#x2da;" d="M322 1239q0 86 63 141q55 45 129 45q82 0 139 -59q49 -51 49 -129q0 -84 -63 -137q-55 -45 -127 -45q-84 0 -141 59q-49 51 -49 125zM418 1239q0 -39 31 -65q25 -25 63 -25q43 0 72 31q23 27 22 59q0 41 -31 68q-24 24 -63 24q-45 0 -72 -31q-23 -27 -22 -61z" />
<glyph unicode="&#x2dc;" d="M190 1122q53 225 213 226q63 0 187 -60q27 -12 47 -12q43 0 57 70l168 -13q-55 -229 -213 -229q-57 0 -182 59q-33 16 -47 17q-43 0 -62 -72z" />
<glyph unicode="&#x2000;" horiz-adv-x="891" />
<glyph unicode="&#x2001;" horiz-adv-x="1782" />
<glyph unicode="&#x2002;" horiz-adv-x="891" />
<glyph unicode="&#x2003;" horiz-adv-x="1782" />
<glyph unicode="&#x2004;" horiz-adv-x="594" />
<glyph unicode="&#x2005;" horiz-adv-x="445" />
<glyph unicode="&#x2006;" horiz-adv-x="297" />
<glyph unicode="&#x2007;" horiz-adv-x="297" />
<glyph unicode="&#x2008;" horiz-adv-x="222" />
<glyph unicode="&#x2009;" horiz-adv-x="356" />
<glyph unicode="&#x200a;" horiz-adv-x="99" />
<glyph unicode="&#x2010;" horiz-adv-x="454" d="M0 383v231h455v-231h-455z" />
<glyph unicode="&#x2011;" horiz-adv-x="454" d="M0 383v231h455v-231h-455z" />
<glyph unicode="&#x2012;" horiz-adv-x="454" d="M0 383v231h455v-231h-455z" />
<glyph unicode="&#x2013;" d="M94 379v219h834v-219h-834z" />
<glyph unicode="&#x2014;" horiz-adv-x="1368" d="M0 399v199h1368v-199h-1368z" />
<glyph unicode="&#x2018;" horiz-adv-x="483" d="M70 967l161 426l175 -47l-115 -441z" />
<glyph unicode="&#x2019;" horiz-adv-x="483" d="M78 952l115 441l221 -62l-162 -426z" />
<glyph unicode="&#x201a;" horiz-adv-x="497" d="M78 -193l119 472l231 -64l-170 -455z" />
<glyph unicode="&#x201c;" horiz-adv-x="888" d="M70 920l174 473l182 -47l-125 -490zM457 920l176 473l180 -47l-123 -490z" />
<glyph unicode="&#x201d;" horiz-adv-x="888" d="M76 903l123 490l233 -64l-174 -473zM465 903l123 490l231 -64l-174 -473z" />
<glyph unicode="&#x201e;" horiz-adv-x="888" d="M76 -209l123 488l233 -64l-174 -471zM465 -209l123 488l231 -64l-174 -471z" />
<glyph unicode="&#x2026;" horiz-adv-x="1601" d="M117 125q0 72 51 117q39 34 100 34q68 0 111 -47q39 -43 39 -106q0 -70 -51 -115q-41 -35 -101 -35q-68 0 -110 47q-39 43 -39 105zM649 125q0 72 53 117q40 34 101 34q66 0 108 -47q41 -43 41 -106q0 -70 -53 -115q-39 -35 -98 -35q-70 0 -111 47q-41 43 -41 105z M1184 125q0 72 51 117q39 34 100 34q68 0 111 -47q39 -43 39 -106q0 -70 -51 -115q-41 -35 -101 -35q-68 0 -110 47q-39 43 -39 105z" />
<glyph unicode="&#x202f;" horiz-adv-x="356" />
<glyph unicode="&#x2039;" horiz-adv-x="565" d="M139 1640q0 63 49 107q40 35 95 35q59 0 100 -45q39 -41 39 -99q0 -61 -49 -104q-37 -35 -92 -35q-63 0 -103 45q-39 41 -39 96zM143 0v1366h281v-1366h-281z" />
<glyph unicode="&#x203a;" horiz-adv-x="518" d="M129 0v946h260v-946h-260z" />
<glyph unicode="&#x205f;" horiz-adv-x="445" />
<glyph unicode="&#x20ac;" horiz-adv-x="1206" d="M39 467q0 145 61 272q59 117 168 181q106 61 246 61q100 0 184 -43q66 -37 123 -109v117h256v-876q0 -199 -55 -301q-63 -119 -199 -183q-117 -55 -266 -55q-274 0 -465 188l162 164q121 -133 293 -133q135 0 207 78q68 74 67 205v96q-129 -162 -334 -162q-121 0 -227 64 q-221 135 -221 436zM315 477q0 -133 84 -213q70 -66 170 -65q121 0 197 88q49 55 49 168q0 150 -70 219q-74 74 -176 74q-127 0 -200 -97q-53 -70 -54 -174zM385 1362h180q10 -41 10 -74q0 -57 27 -57q31 0 31 57q-2 33 8 74h180q-6 -78 -28 -127q-29 -57 -82 -90 q-47 -29 -109 -29q-86 0 -143 60q-66 61 -74 186z" />
<glyph unicode="&#x2122;" horiz-adv-x="1744" d="M16 1217v149h592v-149h-200v-670h-191v670h-201zM725 547v819h211l248 -479l250 479h208v-819h-190v475l-268 -510l-269 510v-475h-190z" />
<glyph unicode="&#x25fc;" horiz-adv-x="942" d="M0 0v942h942v-942h-942z" />
</font>
</defs>
</svg>
